<svg data-v-fde0c5aa="" xmlns="http://www.w3.org/2000/svg" viewBox="0 80 300 350" class="iconAbove"><!---->
    <defs data-v-fde0c5aa=""><!----></defs>
    <rect data-v-fde0c5aa="" fill="transparent" x="0" y="0" width="300px" height="300px" class="logo-background-square"
          data-darkreader-inline-fill="" style="--darkreader-inline-fill:transparent;"></rect>
    <defs data-v-fde0c5aa=""><!----></defs>
    <g data-v-fde0c5aa="" id="91c035d4-a89f-434d-9bd7-4c37172e72b4" fill="#000000" data-darkreader-inline-fill=""
       style="--darkreader-inline-fill:#000000;"
       transform="matrix(2.3096739868957674,0,0,2.3096739868957674,17.297681259117812,166.50643990674206)">
        <path d="M7.53 5.07L7.53 3.82L1.17 3.82L1.17 13.15L7.53 13.15L7.53 11.90L2.65 11.90L2.65 9.07L6.80 9.07L6.80 7.90L2.65 7.90L2.65 5.07ZM12.59 6.36C11.65 6.36 10.94 6.74 10.54 7.32L10.37 6.53L9.13 6.53L9.13 13.15L10.54 13.15L10.54 9.11C10.66 7.95 11.45 7.57 12.19 7.57C13.21 7.57 13.65 8.30 13.65 9.38L13.65 13.15L15.06 13.15L15.06 9.06C15.06 7 13.74 6.36 12.59 6.36ZM19.82 11.93C19.73 11.99 19.50 12.06 19.22 12.06C18.77 12.06 18.49 11.80 18.49 11.20L18.49 7.67L19.89 7.67L19.89 6.53L18.49 6.53L18.49 4.64L17.08 4.64L17.08 6.53L16.20 6.53L16.20 7.67L17.08 7.67L17.08 11.32C17.08 12.91 18.07 13.27 18.89 13.27C19.41 13.27 19.83 13.17 20.01 13.08ZM22.05 5.26C22.56 5.26 22.97 4.86 22.97 4.36C22.97 3.86 22.56 3.46 22.05 3.46C21.54 3.46 21.13 3.86 21.13 4.36C21.13 4.86 21.54 5.26 22.05 5.26ZM21.36 13.15L22.75 13.15L22.75 6.53L21.36 6.53ZM27.75 11.93C27.66 11.99 27.43 12.06 27.15 12.06C26.70 12.06 26.43 11.80 26.43 11.20L26.43 7.67L27.83 7.67L27.83 6.53L26.43 6.53L26.43 4.64L25.01 4.64L25.01 6.53L24.14 6.53L24.14 7.67L25.01 7.67L25.01 11.32C25.01 12.91 26.00 13.27 26.82 13.27C27.34 13.27 27.77 13.17 27.94 13.08ZM33.67 6.53L31.72 11.49L29.75 6.53L28.26 6.53L31.03 13.20L30.60 14.32C30.39 14.82 30.13 15.01 29.82 15.01C29.63 15.01 29.43 14.93 29.34 14.88L29.09 16.06C29.24 16.13 29.55 16.22 29.90 16.22C30.51 16.22 31.25 15.98 31.70 14.86L35.19 6.53ZM44.55 3.82L41.13 11.45L37.68 3.82L36.36 3.82L36.36 13.15L37.83 13.15L37.83 7.12L40.60 13.15L41.64 13.15L44.41 7.12L44.41 13.15L45.88 13.15L45.88 3.82ZM54.22 9.70C54.22 7.73 52.89 6.36 50.97 6.36C48.97 6.36 47.56 7.89 47.56 9.84C47.56 11.80 48.96 13.31 51.13 13.31C52.28 13.31 53.24 12.92 53.84 12.25L52.86 11.46C52.44 11.94 51.87 12.19 51.11 12.19C49.88 12.19 49.15 11.33 49.04 10.15L54.22 10.15ZM50.97 7.50C52.00 7.50 52.67 8.12 52.82 9.17L49.10 9.17C49.31 8.17 49.99 7.50 50.97 7.50ZM58.68 11.93C58.60 11.99 58.36 12.06 58.09 12.06C57.63 12.06 57.36 11.80 57.36 11.20L57.36 7.67L58.76 7.67L58.76 6.53L57.36 6.53L57.36 4.64L55.94 4.64L55.94 6.53L55.07 6.53L55.07 7.67L55.94 7.67L55.94 11.32C55.94 12.91 56.93 13.27 57.75 13.27C58.28 13.27 58.70 13.17 58.87 13.08ZM62.05 13.34C62.99 13.34 63.86 12.94 64.31 12.31L64.53 13.15L65.73 13.15L65.73 9.19C65.73 7.31 64.75 6.36 62.80 6.36C61.82 6.36 61.00 6.61 60.38 7.10L61.00 8.08C61.44 7.70 62.01 7.51 62.65 7.51C63.70 7.51 64.31 8.01 64.31 8.90L64.31 9.45L64.14 9.39C61.26 8.31 59.69 9.79 59.69 11.21C59.69 12.45 60.74 13.34 62.05 13.34ZM62.48 12.25C61.64 12.25 61.18 11.72 61.18 11.11C61.18 10.34 62.07 9.57 64.12 10.30L64.31 10.35L64.31 10.54C64.31 11.62 63.44 12.25 62.48 12.25ZM72.33 3.24L72.33 7.32C71.82 6.72 71.09 6.36 70.15 6.36C68.42 6.36 67.05 7.69 67.05 9.84C67.05 12.00 68.42 13.31 70.15 13.31C71.14 13.31 71.91 12.91 72.42 12.25L72.60 13.15L73.75 13.15L73.75 3.24ZM70.48 12.12C69.29 12.12 68.50 11.14 68.50 9.84C68.50 8.55 69.29 7.55 70.48 7.55C71.72 7.55 72.52 8.55 72.52 9.84C72.52 11.14 71.72 12.12 70.48 12.12ZM77.50 13.34C78.43 13.34 79.30 12.94 79.76 12.31L79.98 13.15L81.17 13.15L81.17 9.19C81.17 7.31 80.19 6.36 78.24 6.36C77.26 6.36 76.45 6.61 75.82 7.10L76.45 8.08C76.88 7.70 77.45 7.51 78.09 7.51C79.14 7.51 79.76 8.01 79.76 8.90L79.76 9.45L79.58 9.39C76.71 8.31 75.13 9.79 75.13 11.21C75.13 12.45 76.18 13.34 77.50 13.34ZM77.92 12.25C77.09 12.25 76.62 11.72 76.62 11.11C76.62 10.34 77.51 9.57 79.57 10.30L79.76 10.35L79.76 10.54C79.76 11.62 78.88 12.25 77.92 12.25ZM85.92 11.93C85.84 11.99 85.60 12.06 85.33 12.06C84.88 12.06 84.60 11.80 84.60 11.20L84.60 7.67L86.00 7.67L86.00 6.53L84.60 6.53L84.60 4.64L83.18 4.64L83.18 6.53L82.31 6.53L82.31 7.67L83.18 7.67L83.18 11.32C83.18 12.91 84.17 13.27 84.99 13.27C85.52 13.27 85.94 13.17 86.11 13.08ZM89.29 13.34C90.23 13.34 91.10 12.94 91.55 12.31L91.77 13.15L92.97 13.15L92.97 9.19C92.97 7.31 91.99 6.36 90.04 6.36C89.06 6.36 88.24 6.61 87.62 7.10L88.24 8.08C88.68 7.70 89.25 7.51 89.89 7.51C90.94 7.51 91.55 8.01 91.55 8.90L91.55 9.45L91.38 9.39C88.51 8.31 86.93 9.79 86.93 11.21C86.93 12.45 87.98 13.34 89.29 13.34ZM89.72 12.25C88.89 12.25 88.42 11.72 88.42 11.11C88.42 10.34 89.31 9.57 91.36 10.30L91.55 10.35L91.55 10.54C91.55 11.62 90.68 12.25 89.72 12.25ZM100.87 13.15L102.48 13.15L98.79 3.82L97.29 3.82L93.60 13.15L95.20 13.15L96.09 10.75L99.98 10.73ZM96.53 9.57L98.04 5.45L99.55 9.57ZM107.64 3.82L103.47 3.82L103.47 13.15L104.96 13.15L104.96 9.45L107.64 9.44C109.13 9.44 110.63 8.44 110.63 6.64C110.63 4.81 109.13 3.82 107.64 3.82ZM107.09 8.30L104.96 8.27L104.96 5.00L107.09 4.97C108.40 4.97 109.08 5.59 109.08 6.64C109.08 7.70 108.40 8.31 107.09 8.30ZM113.74 3.82L112.25 3.82L112.25 13.15L113.74 13.15Z"></path>
    </g>
    <defs data-v-fde0c5aa="">
        <linearGradient data-v-fde0c5aa="" gradientTransform="rotate(25)" id="5f193ff0-5edf-4fc7-be3e-edde1de79af1"
                        x1="0%" y1="0%" x2="100%" y2="0%">
            <stop data-v-fde0c5aa="" offset="0%" stop-color="#41E296" stop-opacity="1"></stop>
            <stop data-v-fde0c5aa="" offset="100%" stop-color="#00C4EE" stop-opacity="1"></stop>
        </linearGradient>
    </defs>
    <g data-v-fde0c5aa="" id="01683850-ee24-4945-bd20-81d63777fa85" stroke="none"
       fill="url(#5f193ff0-5edf-4fc7-be3e-edde1de79af1)" data-darkreader-inline-stroke=""
       style="--darkreader-inline-stroke:none;"
       transform="matrix(2.997956729262222,0,0,2.997956729262222,120.02043270737778,96.03064906106667)">
        <path d="M15.2 11.2l-5.5 5.5c-.9.9-2 1.3-3.2 1.3-1.2 0-2.3-.5-3.2-1.3-.9-.9-1.3-2-1.3-3.2 0-1.2.5-2.3 1.3-3.2l7.6-7.6c.4-.4.4-1 0-1.4-.4-.4-1-.4-1.4 0L1.9 8.9C.7 10.1 0 11.8 0 13.5s.7 3.4 1.9 4.6C3.1 19.3 4.8 20 6.5 20s3.4-.7 4.6-1.9l5.5-5.5c.4-.4.4-1 0-1.4-.4-.4-1-.4-1.4 0z"></path>
        <circle cx="6.5" cy="13.5" r="3.5"></circle>
        <path d="M10.7 6.3c-.4-.4-1-.4-1.4 0l-1 1c-.4.4-.4 1 0 1.4.2.2.7.5 1.4 0l1-1c.4-.4.4-1 0-1.4zM17.3 5.3l-1 1c-.4.4-.4 1 0 1.4.2.2.7.5 1.4 0l1-1c.4-.4.4-1 0-1.4-.4-.4-1-.4-1.4 0zM11.3 11.7c.2.2.8.5 1.4 0l2-2c.4-.4.4-1 0-1.4-.4-.4-1-.4-1.4 0l-2 2c-.4.4-.4 1 0 1.4zM19.7.3c-.4-.4-1-.4-1.4 0l-1 1c-.4.4-.4 1 0 1.4.2.2.7.6 1.4 0l1-1c.4-.4.4-1 0-1.4zM13.7 5.7l2-2c.4-.4.4-1 0-1.4-.4-.4-1-.4-1.4 0l-2 2c-.4.4-.4 1 0 1.4.2.2.7.6 1.4 0z"></path>
    </g><!---->
</svg>